<svg xmlns="http://www.w3.org/2000/svg" width="100" height="100" viewBox="0 0 100 100">
  <defs>
    <style>
      .cls-1 {
        fill: #fff;
        fill-rule: evenodd;
      }
    </style>
  </defs>
  <path id="m" class="cls-1" d="M4.858,21.544V85.225h14.3V39.082q3.589-7,12.183-7,11.182,0,11.477,11.241v41.9h14.3l-0.059-43.67A13.813,13.813,0,0,1,61.388,34.7a11.909,11.909,0,0,1,7.975-2.619q6.12,0,8.769,2.825t2.648,8.887V85.225h14.3V43.379q-0.119-11.358-5.268-17.186T74.131,20.367q-12.6,0-19.54,9.77-4.709-9.769-17.48-9.77-11.653,0-18.363,7.828l-0.412-6.651H4.858Z" transform="translate(0.031 -2.797)"/>
</svg>
