<?xml version="1.0" encoding="UTF-8"?>
<svg id="Layer_2" data-name="Layer 2" xmlns="http://www.w3.org/2000/svg" viewBox="0 0 227.54 329.4">
  <defs>
    <style>
      .cls-1 {
        fill: #fff;
      }
    </style>
  </defs>
  <g id="katman_1" data-name="katman 1">
    <path d="m203.75,76.66l-.23-.13-.52-.16c.21.18.47.28.75.29Z"/>
    <path d="m207.06,100.2l-.25.07.25-.07Z"/>
    <path d="m203.81,76.5s-.05,0-.08-.02c0,.02,0,.03,0,.05.03,0,.05-.02.08-.03Z"/>
    <path d="m206.83,100.07l.38-.22.14-.08.13-.14c-.24.1-.46.25-.65.43Z"/>
    <path d="m204.39,77.13l-.37-.35-.25-.14c.14.24.36.42.62.49Z"/>
    <path d="m110.72,305.49c-.3.13-.56.33-.76.59l.23-.15c.16-.15.39-.32.52-.43Z"/>
    <path d="m165.15,294.78c0-.34-.16-.27-.12.92,0-.1.04-.2.06-.29.02-.21.04-.42.07-.63Z"/>
    <path d="m159.51,305.49c-.3.13-.56.33-.76.59l.24-.15c.16-.15.39-.32.52-.43Z"/>
    <path d="m72.43,308.07c-.23-.2-.5-.32-.8-.37.24.12.48.23.64.32l.16.05Z"/>
    <path d="m63.85,299.8c-.04-.35-.14-.69-.31-.99.12.32.22.64.31.98v.02Z"/>
    <path class="cls-1" d="m121.71,152.11c-11.83,5.07-25.26,10.81-42.66,10.81-7.28-.02-14.52-1.01-21.54-2.97l12.04,123.57c.43,5.16,2.78,9.98,6.59,13.49,3.81,3.51,8.81,5.46,13.99,5.46,0,0,17.06.89,22.76.89,6.13,0,24.51-.89,24.51-.89,5.18,0,10.17-1.95,13.99-5.46,3.81-3.51,6.16-8.33,6.59-13.49l12.89-136.55c-5.76-1.97-11.58-3.27-18.13-3.27-11.33,0-20.47,3.9-31.02,8.42Z"/>
    <path d="m20.24,99.49l.2.19.13.08c-.1-.1-.22-.19-.34-.27Z"/>
    <path d="m226.53,88.04l-1.81-9.14c-1.63-8.2-5.32-15.95-13.74-18.92-2.7-.95-5.76-1.36-7.83-3.32-2.07-1.96-2.68-5.01-3.16-7.84-.89-5.19-1.72-10.38-2.63-15.56-.78-4.45-1.4-9.46-3.45-13.54-2.66-5.49-8.18-8.69-13.66-10.82-2.81-1.05-5.68-1.94-8.59-2.66-13.71-3.62-28.12-4.95-42.22-5.7-16.93-.93-33.89-.65-50.78.84-12.57,1.14-25.8,2.53-37.75,6.87-4.36,1.59-8.86,3.5-12.18,6.87-4.07,4.14-5.4,10.55-2.43,15.72,2.11,3.67,5.69,6.26,9.49,7.98,4.95,2.21,10.11,3.89,15.41,5.02,14.76,3.26,30.04,4.54,45.12,5.09,16.71.67,33.45.13,50.07-1.64,4.11-.45,8.22-.99,12.31-1.63,4.83-.74,7.92-7.05,6.5-11.45-1.7-5.26-6.27-7.29-11.45-6.5-.76.12-1.52.23-2.28.34l-.55.08c-1.75.22-3.5.43-5.26.62-3.62.39-7.25.71-10.88.96-8.15.57-16.31.83-24.47.84-8.02,0-16.05-.23-24.05-.75-3.65-.24-7.29-.54-10.93-.91-1.65-.17-3.3-.35-4.95-.56l-1.57-.2-.34-.05-1.63-.23c-3.32-.5-6.65-1.08-9.94-1.77-.33-.07-.63-.26-.84-.52-.21-.27-.33-.59-.33-.93s.12-.67.33-.93.51-.45.84-.52h.06c2.85-.61,5.72-1.13,8.6-1.58.96-.15,1.92-.3,2.89-.44h.03c1.8-.12,3.62-.44,5.41-.66,15.61-1.62,31.32-2.18,47.01-1.66,7.62.22,15.23.67,22.81,1.44,1.63.17,3.25.35,4.87.55.62.08,1.25.16,1.87.24l1.26.18c3.67.55,7.32,1.21,10.95,1.99,5.38,1.17,12.29,1.55,14.68,7.44.76,1.87,1.11,3.95,1.53,5.91l.54,2.5s.02.09.03.14c1.27,5.91,2.54,11.82,3.81,17.73.09.44.1.89,0,1.32-.09.44-.27.85-.52,1.22-.26.37-.59.67-.97.91-.38.23-.81.38-1.25.45h-.04l-.78.11-.77.1c-2.43.32-4.86.61-7.29.89-4.8.55-9.6,1.02-14.41,1.42-9.56.79-19.13,1.32-28.73,1.56-4.89.13-9.78.19-14.66.18-19.45-.02-38.88-1.15-58.2-3.39-2.09-.25-4.18-.51-6.27-.78,1.62.21-1.18-.16-1.75-.24-1.33-.19-2.66-.38-3.99-.58-4.46-.67-8.9-1.49-13.35-2.22-5.38-.89-10.53-.44-15.4,2.22-4,2.19-7.23,5.54-9.27,9.62-2.1,4.34-2.73,9.07-3.66,13.74-.94,4.67-2.4,9.69-1.85,14.48,1.19,10.34,8.42,18.74,18.82,20.62,9.78,1.77,19.61,3.21,29.47,4.43,38.73,4.74,77.86,5.31,116.71,1.69,3.16-.29,6.32-.62,9.48-.97.99-.11,1.98,0,2.92.33.94.33,1.79.86,2.49,1.56.7.7,1.24,1.55,1.58,2.48.33.93.45,1.93.35,2.92l-.98,9.56c-1.98,19.32-3.96,38.65-5.95,57.97-2.07,20.29-4.15,40.58-6.24,60.86-.59,5.71-1.18,11.43-1.77,17.14-.57,5.62-.65,11.42-1.71,16.98-1.68,8.74-7.6,14.1-16.23,16.07-7.91,1.8-15.99,2.74-24.1,2.82-8.99.05-17.98-.35-26.97-.3-9.6.05-21.36-.83-28.76-7.98-6.51-6.27-7.41-16.1-8.3-24.59-1.18-11.25-2.35-22.49-3.51-33.74l-6.51-62.52-4.21-40.45c-.07-.67-.14-1.33-.21-2-.51-4.83-3.92-9.55-9.31-9.31-4.61.2-9.85,4.12-9.31,9.31l3.12,29.99,6.46,62.04c1.84,17.62,3.68,35.25,5.51,52.88.35,3.38.69,6.76,1.06,10.14,2.03,18.45,16.12,28.4,33.57,31.2,10.19,1.64,20.63,1.98,30.98,2.14,13.26.21,26.65.72,39.69-1.68,19.33-3.55,33.82-16.45,35.89-36.47.59-5.78,1.18-11.56,1.77-17.34,1.96-19.12,3.93-38.24,5.88-57.36l6.41-62.48,2.94-28.64c.15-1.42.75-2.75,1.71-3.81s2.24-1.77,3.64-2.04c5.53-1.08,10.81-2.92,14.74-7.12,6.26-6.7,7.5-15.43,5.29-24.23Zm-207.87,6.18c.08-.04-.07.68-.14,1.02-.01-.51.01-.96.14-1.02Zm.54,4.15s.18.15.31.36c-.21-.2-.34-.34-.32-.36h0Zm.53.7c.19.32.29.53,0,0h0Zm1.06.86h.03s.05.06.07.09c-.03-.03-.06-.07-.1-.09h0Zm185.46-1.29c-1.98,1.89-4.98,2.77-7.93,3.2-33.15,4.92-66.78,7.41-100.29,6.31-23.98-.82-47.71-3.48-71.46-6.84-2.33-.33-4.85-.75-6.45-2.47-3.01-3.23-1.53-9.75-.75-13.66.72-3.58,2.09-8.35,6.35-8.86,6.65-.78,14.37,2.03,20.94,3.02,7.92,1.21,15.86,2.18,23.84,2.9,34.04,3.1,68.66,2.62,102.55-1.92,6.18-.83,12.33-1.79,18.47-2.89,5.46-.98,11.52-2.82,14.82,2.84,2.26,3.86,2.57,9.01,2.22,13.37-.11,1.9-.94,3.68-2.32,4.99h0Z"/>
  </g>
</svg>