<?xml version="1.0" encoding="UTF-8"?>
<svg id="Layer_1" data-name="Layer 1" xmlns="http://www.w3.org/2000/svg" viewBox="0 0 454.98 512">
  <defs>
    <style>
      .cls-1 {
        fill: #fff;
        stroke-width: 0px;
      }
    </style>
  </defs>
  <path class="cls-1" d="M335.22,244.66h14.19l-1.84,17.34h-14.14l1.79-17.34ZM454.98,147.41v217.18c-.48,13.72-7.45,25.98-19.7,34.12l-188.09,108.59c-10.83,6.26-28.57,6.26-39.4,0L19.7,398.72c-11.42-7.48-18.86-19.55-19.7-34.12v-217.18c0-12.51,8.86-27.87,19.7-34.12L207.79,4.69c10.83-6.26,28.57-6.26,39.4,0l188.09,108.59c11.38,7.68,19.26,20.96,19.7,34.12ZM358.83,331.87l-65.63-37.98c-43.78,70.09-140.48,35.84-141.54-37.89,3.53-80,101.91-103.43,141.53-37.9l65.63-37.98C273.29,42.52,74.94,107.91,75.83,256c3.8,159.65,207.62,206.73,283,75.87ZM374.5,232.59h-11.25l2.03-19.59h-12.5l-2.08,19.59h-14.22l2.03-19.59h-12.5l-2.08,19.59h-11.92v12.07h10.63l-1.84,17.34h-12.29v12.07h11l-2.28,21.43h12.73l2.22-21.43h14.1l-2.28,21.43h12.73l2.22-21.43h12.05v-12.07h-10.8l1.79-17.34h12.5v-12.07Z"/>
</svg>