<?xml version="1.0" encoding="UTF-8"?>
<svg id="Layer_1" data-name="Layer 1" xmlns="http://www.w3.org/2000/svg" xmlns:xlink="http://www.w3.org/1999/xlink" viewBox="0 0 500 500">
  <defs>
    <style>
      .cls-1 {
        fill: url(#linear-gradient-2);
      }

      .cls-2 {
        fill: #fff;
      }

      .cls-3 {
        fill: none;
      }

      .cls-4 {
        fill: url(#linear-gradient-3);
      }

      .cls-5 {
        fill: url(#linear-gradient);
      }

      .cls-6 {
        fill: url(#linear-gradient-4);
      }
    </style>
    <linearGradient id="linear-gradient" x1="59.49" y1="347.46" x2="225.67" y2="266.64" gradientTransform="translate(0 502) scale(1 -1)" gradientUnits="userSpaceOnUse">
      <stop offset=".21" stop-color="#fe2857"/>
      <stop offset="1" stop-color="#293896"/>
    </linearGradient>
    <linearGradient id="linear-gradient-2" x1="8.95" y1="318.78" x2="226.32" y2="480" gradientTransform="translate(0 502) scale(1 -1)" gradientUnits="userSpaceOnUse">
      <stop offset="0" stop-color="#fe2857"/>
      <stop offset="0" stop-color="#fe2857"/>
      <stop offset=".86" stop-color="#ff318c"/>
    </linearGradient>
    <linearGradient id="linear-gradient-3" x1="197.23" y1="478.82" x2="482.66" y2="219.64" gradientTransform="translate(0 502) scale(1 -1)" gradientUnits="userSpaceOnUse">
      <stop offset=".02" stop-color="#ff318c"/>
      <stop offset=".21" stop-color="#fe2857"/>
      <stop offset=".86" stop-color="#fdb60d"/>
    </linearGradient>
    <linearGradient id="linear-gradient-4" x1="466.68" y1="252.71" x2="133.87" y2="23.64" gradientTransform="translate(0 502) scale(1 -1)" gradientUnits="userSpaceOnUse">
      <stop offset="0" stop-color="#fdb60d"/>
      <stop offset=".86" stop-color="#fcf84a"/>
    </linearGradient>
  </defs>
  <path class="cls-5" d="m221.73,229.16L84.65,113.13c-21.06-17.62-52.42-14.84-70.05,6.22C-3.02,140.41-.24,171.77,20.82,189.4c4.69,3.93,10.07,6.95,15.86,8.93h.5l1.29.4,172.92,52.68c1.25.45,2.58.69,3.91.7,6.83-.04,12.34-5.6,12.3-12.43-.02-4.28-2.25-8.24-5.9-10.48l.03-.03Z"/>
  <path class="cls-1" d="m249.21,37.61c.12-19.94-15.94-36.2-35.88-36.32-7.09-.04-14.04,2-19.98,5.89L25.94,108.82c-23.01,15-29.5,45.8-14.51,68.81,15,23.01,45.8,29.5,68.81,14.51,1.76-1.14,3.44-2.4,5.03-3.76l150.07-122.29,1.19-.99c8.03-6.88,12.65-16.91,12.66-27.48Z"/>
  <path class="cls-4" d="m492.67,256.64L238.67,12.02c-14.1-14.15-37-14.19-51.15-.09-14.15,14.1-14.19,37-.09,51.15.69.69,1.4,1.35,2.14,1.98l.46.4,269.85,227.35c10.32,8.66,25.71,7.31,34.37-3.01,3.69-4.4,5.71-9.97,5.71-15.72,0-6.55-2.63-12.83-7.29-17.44Z"/>
  <path class="cls-6" d="m500,274.18c.1-13.46-10.73-24.45-24.19-24.54-5.21-.04-10.29,1.59-14.5,4.65l-307.34,150.17c-24.54,12.33-34.44,42.22-22.11,66.76,12.33,24.54,42.22,34.44,66.76,22.11,2.32-1.17,4.55-2.52,6.67-4.03l284.2-195.06c6.59-4.55,10.51-12.05,10.51-20.06h0Z"/>
  <path d="m150.26,150.55h198.91v198.91h-198.91v-198.91Z"/>
  <g>
    <path class="cls-2" d="m171.9,312.17h74.59v12.43h-74.59v-12.43Z"/>
    <path class="cls-2" d="m168.79,201.84l5.54-5.24c1.07,1.69,2.88,2.76,4.87,2.88,2.12,0,3.51-1.49,3.51-4.38v-19.63h8.55v19.69c.26,3.21-.85,6.37-3.05,8.72-2.27,2.22-5.35,3.41-8.52,3.32-4.31.17-8.42-1.85-10.91-5.37Z"/>
    <path class="cls-2" d="m195.11,175.48h24.96v7.26h-16.58v4.74h14.88v6.63h-14.75v4.94h16.58v7.29h-25.19l.1-30.86Z"/>
    <path class="cls-2" d="m232.24,183.01h-9.28v-7.53h27.22v7.53h-9.32v23.5h-8.62v-23.5Z"/>
    <path class="cls-2" d="m172.23,218.78h14.65c3.07-.25,6.12.74,8.45,2.75,1.33,1.33,2.06,3.15,2.02,5.04.05,3.1-1.88,5.89-4.81,6.93,3.64.67,6.26,3.89,6.17,7.59,0,5.6-4.34,8.92-11.77,8.92h-14.72v-31.23Zm16.58,9.58c0-1.72-1.39-2.65-3.91-2.65h-4.28v5.44h4.14c2.59,0,4.11-.9,4.11-2.69l-.07-.1Zm-2.98,8.82h-5.2v5.74h5.37c2.65,0,4.11-1.03,4.11-2.85-.07-1.76-1.33-2.88-4.21-2.88h-.07Z"/>
    <path class="cls-2" d="m201.47,218.78h13.76c3.68-.3,7.32.9,10.11,3.32,1.88,1.92,2.88,4.54,2.75,7.23.12,4.23-2.44,8.07-6.4,9.58l7.43,11.11h-9.95l-6.27-9.41h-2.88v9.41h-8.62l.07-31.23Zm13.26,14.92c2.88,0,4.64-1.43,4.64-3.71,0-2.49-1.82-3.75-4.67-3.75h-4.61v7.53l4.64-.07Z"/>
    <path class="cls-2" d="m240.06,218.55h8.29l13.26,31.29h-9.25l-2.22-5.6h-12.03l-2.22,5.77h-8.98l13.16-31.46Zm7.56,19l-3.48-8.79-3.51,8.79h6.99Z"/>
    <path class="cls-2" d="m262.97,218.68h8.62v31.06h-8.62v-31.06Z"/>
    <path class="cls-2" d="m274.77,218.68h8.09l11.17,16.58v-16.58h8.52v31.06h-7.53l-11.7-17.04v17.04h-8.55v-31.06Z"/>
    <path class="cls-2" d="m303.98,245.13l4.77-5.74c2.8,2.34,6.3,3.66,9.95,3.75,2.35,0,3.58-.83,3.58-2.15s-.99-2.02-5.27-3.02c-6.63-1.52-11.7-3.32-11.7-9.71,0-5.77,4.57-9.95,12.03-9.95,4.61-.17,9.13,1.3,12.76,4.14l-4.14,5.9c-2.51-1.89-5.54-2.96-8.69-3.05-2.09,0-3.12.83-3.12,1.99,0,1.43,1.06,2.06,5.4,3.02,7.13,1.56,11.54,3.88,11.54,9.68,0,6.33-5.01,9.95-12.53,9.95-5.28.23-10.47-1.48-14.59-4.81Z"/>
  </g>
  <path class="cls-3" d="m0,0h500v500H0V0Z"/>
</svg>